<mxfile host="Electron" agent="Mozilla/5.0 (Macintosh; Intel Mac OS X 10_15_7) AppleWebKit/537.36 (KHTML, like Gecko) draw.io/26.0.16 Chrome/132.0.6834.196 Electron/34.2.0 Safari/537.36" version="26.0.16">
  <diagram name="ページ1" id="4pFcTXzAW4KqmytINHhx">
    <mxGraphModel dx="1257" dy="736" grid="1" gridSize="10" guides="1" tooltips="1" connect="1" arrows="1" fold="1" page="1" pageScale="1" pageWidth="827" pageHeight="1169" math="1" shadow="0">
      <root>
        <mxCell id="0" />
        <mxCell id="1" parent="0" />
        <mxCell id="KWwiULwsPIgueppWUqIw-174" value="" style="ellipse;whiteSpace=wrap;html=1;fillColor=#ffe6cc;strokeColor=none;" vertex="1" parent="1">
          <mxGeometry x="631" y="190" width="80" height="80" as="geometry" />
        </mxCell>
        <mxCell id="KWwiULwsPIgueppWUqIw-170" value="" style="ellipse;whiteSpace=wrap;html=1;fillColor=#ffe6cc;strokeColor=none;gradientColor=none;fillStyle=auto;" vertex="1" parent="1">
          <mxGeometry x="441" y="190" width="80" height="80" as="geometry" />
        </mxCell>
        <mxCell id="KWwiULwsPIgueppWUqIw-138" value="" style="ellipse;whiteSpace=wrap;html=1;fillColor=none;strokeWidth=0.5;" vertex="1" parent="1">
          <mxGeometry x="41" y="220" width="80" height="80" as="geometry" />
        </mxCell>
        <mxCell id="KWwiULwsPIgueppWUqIw-16" style="rounded=0;orthogonalLoop=1;jettySize=auto;html=1;entryX=0.048;entryY=0.306;entryDx=0;entryDy=0;endArrow=none;startFill=0;entryPerimeter=0;exitX=0.95;exitY=0.322;exitDx=0;exitDy=0;exitPerimeter=0;strokeWidth=0.5;" edge="1" parent="1" source="KWwiULwsPIgueppWUqIw-1" target="KWwiULwsPIgueppWUqIw-7">
          <mxGeometry relative="1" as="geometry">
            <mxPoint x="151.00000000000205" y="214.5700000000001" as="sourcePoint" />
            <mxPoint x="260.9999999999966" y="214.5700000000001" as="targetPoint" />
          </mxGeometry>
        </mxCell>
        <mxCell id="KWwiULwsPIgueppWUqIw-132" style="rounded=0;orthogonalLoop=1;jettySize=auto;html=1;exitX=0;exitY=0;exitDx=0;exitDy=0;endArrow=none;startFill=0;strokeWidth=0.5;" edge="1" parent="1" source="KWwiULwsPIgueppWUqIw-1">
          <mxGeometry relative="1" as="geometry">
            <mxPoint x="20" y="100" as="targetPoint" />
          </mxGeometry>
        </mxCell>
        <mxCell id="KWwiULwsPIgueppWUqIw-140" style="rounded=0;orthogonalLoop=1;jettySize=auto;html=1;exitX=0.907;exitY=0.769;exitDx=0;exitDy=0;entryX=0.07;entryY=0.748;entryDx=0;entryDy=0;endArrow=none;startFill=0;entryPerimeter=0;exitPerimeter=0;strokeWidth=0.5;" edge="1" parent="1" source="KWwiULwsPIgueppWUqIw-1" target="KWwiULwsPIgueppWUqIw-7">
          <mxGeometry relative="1" as="geometry" />
        </mxCell>
        <mxCell id="KWwiULwsPIgueppWUqIw-1" value="" style="ellipse;whiteSpace=wrap;html=1;fillColor=#f5f5f5;strokeColor=#666666;fontColor=#333333;" vertex="1" parent="1">
          <mxGeometry x="71" y="190" width="80" height="80" as="geometry" />
        </mxCell>
        <mxCell id="KWwiULwsPIgueppWUqIw-18" style="rounded=0;orthogonalLoop=1;jettySize=auto;html=1;exitX=0.5;exitY=1;exitDx=0;exitDy=0;endArrow=none;startFill=0;strokeWidth=0.5;" edge="1" parent="1" target="KWwiULwsPIgueppWUqIw-1">
          <mxGeometry relative="1" as="geometry">
            <mxPoint x="191" y="10" as="sourcePoint" />
          </mxGeometry>
        </mxCell>
        <mxCell id="KWwiULwsPIgueppWUqIw-12" style="rounded=0;orthogonalLoop=1;jettySize=auto;html=1;exitX=0.224;exitY=0.136;exitDx=0;exitDy=0;endArrow=none;startFill=0;exitPerimeter=0;strokeWidth=0.5;" edge="1" parent="1" source="KWwiULwsPIgueppWUqIw-7">
          <mxGeometry relative="1" as="geometry">
            <mxPoint x="260" y="20" as="targetPoint" />
          </mxGeometry>
        </mxCell>
        <mxCell id="KWwiULwsPIgueppWUqIw-17" style="rounded=0;orthogonalLoop=1;jettySize=auto;html=1;endArrow=none;startFill=0;strokeWidth=0.5;" edge="1" parent="1" source="KWwiULwsPIgueppWUqIw-7">
          <mxGeometry relative="1" as="geometry">
            <mxPoint x="370" y="30" as="targetPoint" />
          </mxGeometry>
        </mxCell>
        <mxCell id="KWwiULwsPIgueppWUqIw-7" value="" style="ellipse;whiteSpace=wrap;html=1;fillColor=#f5f5f5;strokeColor=#666666;fontColor=#333333;" vertex="1" parent="1">
          <mxGeometry x="261" y="190" width="80" height="80" as="geometry" />
        </mxCell>
        <mxCell id="KWwiULwsPIgueppWUqIw-48" value="$$G$$" style="text;html=1;align=center;verticalAlign=middle;resizable=0;points=[];autosize=1;strokeColor=none;fillColor=none;" vertex="1" parent="1">
          <mxGeometry x="170" y="310" width="60" height="30" as="geometry" />
        </mxCell>
        <mxCell id="KWwiULwsPIgueppWUqIw-123" value="$$v$$" style="text;html=1;align=center;verticalAlign=middle;resizable=0;points=[];autosize=1;strokeColor=none;fillColor=none;" vertex="1" parent="1">
          <mxGeometry x="271" y="215" width="60" height="30" as="geometry" />
        </mxCell>
        <mxCell id="KWwiULwsPIgueppWUqIw-124" value="$$u$$" style="text;html=1;align=center;verticalAlign=middle;resizable=0;points=[];autosize=1;strokeColor=none;fillColor=none;" vertex="1" parent="1">
          <mxGeometry x="81" y="215" width="60" height="30" as="geometry" />
        </mxCell>
        <mxCell id="KWwiULwsPIgueppWUqIw-131" value="$$e_1$$" style="text;html=1;align=center;verticalAlign=middle;resizable=0;points=[];autosize=1;strokeColor=none;fillColor=none;" vertex="1" parent="1">
          <mxGeometry x="20" y="170" width="70" height="30" as="geometry" />
        </mxCell>
        <mxCell id="KWwiULwsPIgueppWUqIw-134" value="$$e_5$$" style="text;html=1;align=center;verticalAlign=middle;resizable=0;points=[];autosize=1;strokeColor=none;fillColor=none;" vertex="1" parent="1">
          <mxGeometry x="121" y="130" width="70" height="30" as="geometry" />
        </mxCell>
        <mxCell id="KWwiULwsPIgueppWUqIw-135" value="$$e_4$$" style="text;html=1;align=center;verticalAlign=middle;resizable=0;points=[];autosize=1;strokeColor=none;fillColor=none;" vertex="1" parent="1">
          <mxGeometry x="170" y="185" width="70" height="30" as="geometry" />
        </mxCell>
        <mxCell id="KWwiULwsPIgueppWUqIw-136" value="$$e_6$$" style="text;html=1;align=center;verticalAlign=middle;resizable=0;points=[];autosize=1;strokeColor=none;fillColor=none;" vertex="1" parent="1">
          <mxGeometry x="220" y="118" width="70" height="30" as="geometry" />
        </mxCell>
        <mxCell id="KWwiULwsPIgueppWUqIw-137" value="$$e_7$$" style="text;html=1;align=center;verticalAlign=middle;resizable=0;points=[];autosize=1;strokeColor=none;fillColor=none;" vertex="1" parent="1">
          <mxGeometry x="310" y="140" width="70" height="30" as="geometry" />
        </mxCell>
        <mxCell id="KWwiULwsPIgueppWUqIw-139" value="$$e_2$$" style="text;html=1;align=center;verticalAlign=middle;resizable=0;points=[];autosize=1;strokeColor=none;fillColor=none;" vertex="1" parent="1">
          <mxGeometry x="46" y="290" width="70" height="30" as="geometry" />
        </mxCell>
        <mxCell id="KWwiULwsPIgueppWUqIw-141" value="$$e_3$$" style="text;html=1;align=center;verticalAlign=middle;resizable=0;points=[];autosize=1;strokeColor=none;fillColor=none;strokeWidth=0.5;" vertex="1" parent="1">
          <mxGeometry x="170" y="250" width="70" height="30" as="geometry" />
        </mxCell>
        <mxCell id="KWwiULwsPIgueppWUqIw-165" value="" style="ellipse;whiteSpace=wrap;html=1;fillColor=none;strokeWidth=0.5;" vertex="1" parent="1">
          <mxGeometry x="390" y="230" width="80" height="80" as="geometry" />
        </mxCell>
        <mxCell id="KWwiULwsPIgueppWUqIw-167" style="rounded=0;orthogonalLoop=1;jettySize=auto;html=1;entryX=0.396;entryY=0.373;entryDx=0;entryDy=0;endArrow=none;startFill=0;entryPerimeter=0;exitX=0.637;exitY=0.586;exitDx=0;exitDy=0;exitPerimeter=0;strokeWidth=0.5;" edge="1" parent="1" source="KWwiULwsPIgueppWUqIw-192" target="KWwiULwsPIgueppWUqIw-196">
          <mxGeometry relative="1" as="geometry">
            <mxPoint x="521.000000000002" y="214.5700000000001" as="sourcePoint" />
            <mxPoint x="630.9999999999966" y="214.5700000000001" as="targetPoint" />
          </mxGeometry>
        </mxCell>
        <mxCell id="KWwiULwsPIgueppWUqIw-168" style="rounded=0;orthogonalLoop=1;jettySize=auto;html=1;exitX=0.573;exitY=0.703;exitDx=0;exitDy=0;endArrow=none;startFill=0;exitPerimeter=0;strokeWidth=0.5;" edge="1" parent="1" source="KWwiULwsPIgueppWUqIw-190">
          <mxGeometry relative="1" as="geometry">
            <mxPoint x="390" y="100" as="targetPoint" />
          </mxGeometry>
        </mxCell>
        <mxCell id="KWwiULwsPIgueppWUqIw-169" style="rounded=0;orthogonalLoop=1;jettySize=auto;html=1;exitX=0.694;exitY=0.379;exitDx=0;exitDy=0;endArrow=none;startFill=0;exitPerimeter=0;strokeWidth=0.5;" edge="1" parent="1" source="KWwiULwsPIgueppWUqIw-194" target="KWwiULwsPIgueppWUqIw-197">
          <mxGeometry relative="1" as="geometry" />
        </mxCell>
        <mxCell id="KWwiULwsPIgueppWUqIw-171" style="rounded=0;orthogonalLoop=1;jettySize=auto;html=1;exitX=0.5;exitY=1;exitDx=0;exitDy=0;endArrow=none;startFill=0;entryX=0.605;entryY=0.655;entryDx=0;entryDy=0;entryPerimeter=0;strokeWidth=0.5;" edge="1" parent="1">
          <mxGeometry relative="1" as="geometry">
            <mxPoint x="561" y="10" as="sourcePoint" />
            <mxPoint x="490" y="205" as="targetPoint" />
          </mxGeometry>
        </mxCell>
        <mxCell id="KWwiULwsPIgueppWUqIw-172" style="rounded=0;orthogonalLoop=1;jettySize=auto;html=1;endArrow=none;startFill=0;strokeWidth=0.5;" edge="1" parent="1" source="KWwiULwsPIgueppWUqIw-195">
          <mxGeometry relative="1" as="geometry">
            <mxPoint x="630" y="20" as="targetPoint" />
          </mxGeometry>
        </mxCell>
        <mxCell id="KWwiULwsPIgueppWUqIw-173" style="rounded=0;orthogonalLoop=1;jettySize=auto;html=1;endArrow=none;startFill=0;strokeWidth=0.5;" edge="1" parent="1" source="KWwiULwsPIgueppWUqIw-198">
          <mxGeometry relative="1" as="geometry">
            <mxPoint x="740" y="30" as="targetPoint" />
          </mxGeometry>
        </mxCell>
        <mxCell id="KWwiULwsPIgueppWUqIw-175" value="$$G&#39;$$" style="text;html=1;align=center;verticalAlign=middle;resizable=0;points=[];autosize=1;strokeColor=none;fillColor=none;" vertex="1" parent="1">
          <mxGeometry x="535" y="310" width="60" height="30" as="geometry" />
        </mxCell>
        <mxCell id="KWwiULwsPIgueppWUqIw-200" style="rounded=0;orthogonalLoop=1;jettySize=auto;html=1;fillColor=#f8cecc;strokeColor=#b85450;endArrow=none;startFill=0;" edge="1" parent="1" source="KWwiULwsPIgueppWUqIw-190" target="KWwiULwsPIgueppWUqIw-189">
          <mxGeometry relative="1" as="geometry" />
        </mxCell>
        <mxCell id="KWwiULwsPIgueppWUqIw-202" style="edgeStyle=orthogonalEdgeStyle;rounded=0;orthogonalLoop=1;jettySize=auto;html=1;fillColor=#f8cecc;strokeColor=#b85450;endArrow=none;startFill=0;" edge="1" parent="1" source="KWwiULwsPIgueppWUqIw-192" target="KWwiULwsPIgueppWUqIw-194">
          <mxGeometry relative="1" as="geometry" />
        </mxCell>
        <mxCell id="KWwiULwsPIgueppWUqIw-203" style="rounded=0;orthogonalLoop=1;jettySize=auto;html=1;endArrow=none;startFill=0;fillColor=#f8cecc;strokeColor=#b85450;" edge="1" parent="1" source="KWwiULwsPIgueppWUqIw-192">
          <mxGeometry relative="1" as="geometry">
            <mxPoint x="490" y="205" as="targetPoint" />
          </mxGeometry>
        </mxCell>
        <mxCell id="KWwiULwsPIgueppWUqIw-192" value="" style="shape=waypoint;sketch=0;size=6;pointerEvents=1;points=[];fillColor=none;resizable=0;rotatable=0;perimeter=centerPerimeter;snapToPoint=1;" vertex="1" parent="1">
          <mxGeometry x="490" y="210" width="20" height="20" as="geometry" />
        </mxCell>
        <mxCell id="KWwiULwsPIgueppWUqIw-201" style="edgeStyle=orthogonalEdgeStyle;rounded=0;orthogonalLoop=1;jettySize=auto;html=1;fillColor=#f8cecc;strokeColor=#b85450;endArrow=none;startFill=0;" edge="1" parent="1" source="KWwiULwsPIgueppWUqIw-189" target="KWwiULwsPIgueppWUqIw-194">
          <mxGeometry relative="1" as="geometry" />
        </mxCell>
        <mxCell id="KWwiULwsPIgueppWUqIw-189" value="" style="shape=waypoint;sketch=0;size=6;pointerEvents=1;points=[];fillColor=none;resizable=0;rotatable=0;perimeter=centerPerimeter;snapToPoint=1;" vertex="1" parent="1">
          <mxGeometry x="452" y="236" width="20" height="20" as="geometry" />
        </mxCell>
        <mxCell id="KWwiULwsPIgueppWUqIw-194" value="" style="shape=waypoint;sketch=0;size=6;pointerEvents=1;points=[];fillColor=none;resizable=0;rotatable=0;perimeter=centerPerimeter;snapToPoint=1;" vertex="1" parent="1">
          <mxGeometry x="491" y="235" width="20" height="20" as="geometry" />
        </mxCell>
        <mxCell id="KWwiULwsPIgueppWUqIw-206" style="rounded=0;orthogonalLoop=1;jettySize=auto;html=1;entryX=0.475;entryY=0.702;entryDx=0;entryDy=0;entryPerimeter=0;fillColor=#f8cecc;strokeColor=#b85450;endArrow=none;startFill=0;" edge="1" parent="1" source="KWwiULwsPIgueppWUqIw-196" target="KWwiULwsPIgueppWUqIw-195">
          <mxGeometry relative="1" as="geometry" />
        </mxCell>
        <mxCell id="KWwiULwsPIgueppWUqIw-207" style="rounded=0;orthogonalLoop=1;jettySize=auto;html=1;entryX=0.5;entryY=0.5;entryDx=0;entryDy=0;entryPerimeter=0;endArrow=none;startFill=0;fillColor=#f8cecc;strokeColor=#b85450;" edge="1" parent="1" source="KWwiULwsPIgueppWUqIw-198" target="KWwiULwsPIgueppWUqIw-195">
          <mxGeometry relative="1" as="geometry" />
        </mxCell>
        <mxCell id="KWwiULwsPIgueppWUqIw-208" style="rounded=0;orthogonalLoop=1;jettySize=auto;html=1;entryX=0.602;entryY=0.915;entryDx=0;entryDy=0;entryPerimeter=0;endArrow=none;startFill=0;fillColor=#f8cecc;strokeColor=#b85450;" edge="1" parent="1" source="KWwiULwsPIgueppWUqIw-198" target="KWwiULwsPIgueppWUqIw-197">
          <mxGeometry relative="1" as="geometry" />
        </mxCell>
        <mxCell id="KWwiULwsPIgueppWUqIw-209" style="rounded=0;orthogonalLoop=1;jettySize=auto;html=1;entryX=0.289;entryY=0.064;entryDx=0;entryDy=0;entryPerimeter=0;endArrow=none;startFill=0;fillColor=#f8cecc;strokeColor=#b85450;" edge="1" parent="1" source="KWwiULwsPIgueppWUqIw-196" target="KWwiULwsPIgueppWUqIw-197">
          <mxGeometry relative="1" as="geometry" />
        </mxCell>
        <mxCell id="KWwiULwsPIgueppWUqIw-195" value="" style="shape=waypoint;sketch=0;size=6;pointerEvents=1;points=[];fillColor=none;resizable=0;rotatable=0;perimeter=centerPerimeter;snapToPoint=1;" vertex="1" parent="1">
          <mxGeometry x="650" y="195" width="20" height="20" as="geometry" />
        </mxCell>
        <mxCell id="KWwiULwsPIgueppWUqIw-196" value="" style="shape=waypoint;sketch=0;size=6;pointerEvents=1;points=[];fillColor=none;resizable=0;rotatable=0;perimeter=centerPerimeter;snapToPoint=1;" vertex="1" parent="1">
          <mxGeometry x="631" y="210" width="20" height="20" as="geometry" />
        </mxCell>
        <mxCell id="KWwiULwsPIgueppWUqIw-197" value="" style="shape=waypoint;sketch=0;size=6;pointerEvents=1;points=[];fillColor=none;resizable=0;rotatable=0;perimeter=centerPerimeter;snapToPoint=1;" vertex="1" parent="1">
          <mxGeometry x="640" y="240" width="20" height="20" as="geometry" />
        </mxCell>
        <mxCell id="KWwiULwsPIgueppWUqIw-198" value="" style="shape=waypoint;sketch=0;size=6;pointerEvents=1;points=[];fillColor=none;resizable=0;rotatable=0;perimeter=centerPerimeter;snapToPoint=1;" vertex="1" parent="1">
          <mxGeometry x="670" y="195" width="20" height="20" as="geometry" />
        </mxCell>
        <mxCell id="KWwiULwsPIgueppWUqIw-211" value="$$(u,e_3)$$" style="text;html=1;align=center;verticalAlign=middle;resizable=0;points=[];autosize=1;strokeColor=none;fillColor=none;fontSize=7;" vertex="1" parent="1">
          <mxGeometry x="472" y="243" width="60" height="20" as="geometry" />
        </mxCell>
        <mxCell id="KWwiULwsPIgueppWUqIw-214" style="rounded=0;orthogonalLoop=1;jettySize=auto;html=1;fillColor=#f8cecc;strokeColor=#b85450;endArrow=none;startFill=0;" edge="1" parent="1" source="KWwiULwsPIgueppWUqIw-213" target="KWwiULwsPIgueppWUqIw-190">
          <mxGeometry relative="1" as="geometry" />
        </mxCell>
        <mxCell id="KWwiULwsPIgueppWUqIw-213" value="" style="shape=waypoint;sketch=0;size=6;pointerEvents=1;points=[];fillColor=none;resizable=0;rotatable=0;perimeter=centerPerimeter;snapToPoint=1;" vertex="1" parent="1">
          <mxGeometry x="480" y="195" width="20" height="20" as="geometry" />
        </mxCell>
        <mxCell id="KWwiULwsPIgueppWUqIw-190" value="" style="shape=waypoint;sketch=0;size=6;pointerEvents=1;points=[];fillColor=none;resizable=0;rotatable=0;perimeter=centerPerimeter;snapToPoint=1;" vertex="1" parent="1">
          <mxGeometry x="450" y="200" width="20" height="20" as="geometry" />
        </mxCell>
        <mxCell id="KWwiULwsPIgueppWUqIw-215" value="$$(u,e_2)$$" style="text;html=1;align=center;verticalAlign=middle;resizable=0;points=[];autosize=1;strokeColor=none;fillColor=none;fontSize=7;" vertex="1" parent="1">
          <mxGeometry x="420" y="245" width="60" height="20" as="geometry" />
        </mxCell>
        <mxCell id="KWwiULwsPIgueppWUqIw-216" value="$$(u,e_5)$$" style="text;html=1;align=center;verticalAlign=middle;resizable=0;points=[];autosize=1;strokeColor=none;fillColor=none;fontSize=7;" vertex="1" parent="1">
          <mxGeometry x="475" y="191" width="60" height="20" as="geometry" />
        </mxCell>
        <mxCell id="KWwiULwsPIgueppWUqIw-217" value="$$(u,e_4)$$" style="text;html=1;align=center;verticalAlign=middle;resizable=0;points=[];autosize=1;strokeColor=none;fillColor=none;fontSize=7;" vertex="1" parent="1">
          <mxGeometry x="484" y="216" width="60" height="20" as="geometry" />
        </mxCell>
        <mxCell id="KWwiULwsPIgueppWUqIw-218" value="$$(u,e_1)$$" style="text;html=1;align=center;verticalAlign=middle;resizable=0;points=[];autosize=1;strokeColor=none;fillColor=none;fontSize=7;" vertex="1" parent="1">
          <mxGeometry x="414" y="199" width="60" height="20" as="geometry" />
        </mxCell>
        <mxCell id="KWwiULwsPIgueppWUqIw-219" value="$$(v,e_3)$$" style="text;html=1;align=center;verticalAlign=middle;resizable=0;points=[];autosize=1;strokeColor=none;fillColor=none;fontSize=7;" vertex="1" parent="1">
          <mxGeometry x="620" y="250" width="60" height="20" as="geometry" />
        </mxCell>
        <mxCell id="KWwiULwsPIgueppWUqIw-220" value="$$(v,e_4)$$" style="text;html=1;align=center;verticalAlign=middle;resizable=0;points=[];autosize=1;strokeColor=none;fillColor=none;fontSize=7;" vertex="1" parent="1">
          <mxGeometry x="597" y="216" width="60" height="20" as="geometry" />
        </mxCell>
        <mxCell id="KWwiULwsPIgueppWUqIw-221" value="$$(v,e_6)$$" style="text;html=1;align=center;verticalAlign=middle;resizable=0;points=[];autosize=1;strokeColor=none;fillColor=none;fontSize=7;" vertex="1" parent="1">
          <mxGeometry x="615" y="189" width="60" height="20" as="geometry" />
        </mxCell>
        <mxCell id="KWwiULwsPIgueppWUqIw-222" value="$$(v,e_7)$$" style="text;html=1;align=center;verticalAlign=middle;resizable=0;points=[];autosize=1;strokeColor=none;fillColor=none;fontSize=7;" vertex="1" parent="1">
          <mxGeometry x="666" y="194" width="60" height="20" as="geometry" />
        </mxCell>
      </root>
    </mxGraphModel>
  </diagram>
</mxfile>
